<svg width="24" height="24" viewBox="0 0 24 24" fill="none" xmlns="http://www.w3.org/2000/svg">
<path d="M14.25 2.67188H19.5C19.7859 2.67188 20.0605 2.78512 20.2627 2.9873C20.4649 3.18949 20.5781 3.46406 20.5781 3.75V18.4219H21C21.2859 18.4219 21.5605 18.5351 21.7627 18.7373C21.9649 18.9395 22.0781 19.2141 22.0781 19.5C22.0781 19.7859 21.9649 20.0605 21.7627 20.2627C21.5605 20.4649 21.2859 20.5781 21 20.5781H3C2.71406 20.5781 2.43949 20.4649 2.2373 20.2627C2.03512 20.0605 1.92188 19.7859 1.92188 19.5C1.92188 19.2141 2.03512 18.9395 2.2373 18.7373C2.43949 18.5351 2.71406 18.4219 3 18.4219H3.42188V12.75C3.42188 12.4641 3.53512 12.1895 3.7373 11.9873C3.93949 11.7851 4.21406 11.6719 4.5 11.6719H7.92188V8.25C7.92188 7.96406 8.03512 7.68949 8.2373 7.4873C8.43949 7.28512 8.71406 7.17188 9 7.17188H13.1719V3.75C13.1719 3.46406 13.2851 3.18949 13.4873 2.9873C13.6895 2.78512 13.9641 2.67188 14.25 2.67188ZM5.57812 18.4219H7.92188V13.8281H5.57812V18.4219ZM10.0781 18.4219H13.1719V9.32812H10.0781V18.4219ZM15.3281 18.4219H18.4219V4.82812H15.3281V18.4219Z" fill="#475569" stroke="#475569" stroke-width="0.09375"/>
</svg>
