<svg width="20" height="20" viewBox="0 0 20 20" fill="none" xmlns="http://www.w3.org/2000/svg">
<path d="M15.625 2.8125H4.37502C3.96061 2.8125 3.56319 2.97712 3.27016 3.27015C2.97714 3.56317 2.81252 3.9606 2.81252 4.375V15.625C2.81252 16.0394 2.97714 16.4368 3.27016 16.7299C3.56319 17.0229 3.96061 17.1875 4.37502 17.1875H15.625C16.0394 17.1875 16.4368 17.0229 16.7299 16.7299C17.0229 16.4368 17.1875 16.0394 17.1875 15.625V4.375C17.1875 3.9606 17.0229 3.56317 16.7299 3.27015C16.4368 2.97712 16.0394 2.8125 15.625 2.8125ZM15.3125 9.0625H10.9375V4.6875H15.3125V9.0625ZM9.06252 4.6875V9.0625H4.68752V4.6875H9.06252ZM4.68752 10.9375H9.06252V15.3125H4.68752V10.9375ZM10.9375 15.3125V10.9375H15.3125V15.3125H10.9375Z" fill="#1E293B"/>
</svg>
