<svg width="24" height="24" viewBox="0 0 24 24" fill="none" xmlns="http://www.w3.org/2000/svg">
<path d="M11.9998 1.91908C13.4853 1.91908 14.9334 2.38648 16.1385 3.25502C17.3436 4.12364 18.2449 5.34962 18.7147 6.75893C19.1844 8.16819 19.1995 9.68962 18.7567 11.1076C18.3137 12.5255 17.4353 13.768 16.2469 14.6593L16.1805 14.7091L16.2576 14.7404C18.653 15.7128 20.6513 17.4632 21.9315 19.7091V19.7101C22.0634 19.9567 22.095 20.2448 22.0184 20.5138C21.9416 20.783 21.7627 21.0115 21.5203 21.1515C21.278 21.2915 20.991 21.3318 20.7195 21.2638C20.4483 21.1959 20.214 21.0256 20.0662 20.7882H20.0652C18.3582 17.8395 15.3437 16.0783 11.9998 16.0783C8.6556 16.0783 5.64031 17.8389 3.93341 20.7892L3.93243 20.7902C3.86423 20.9176 3.77151 21.0305 3.659 21.1212C3.54658 21.2118 3.41698 21.2789 3.27814 21.3185C3.13915 21.3581 2.99286 21.3694 2.84943 21.3517C2.7062 21.3339 2.56816 21.2872 2.44318 21.215C2.31813 21.1427 2.20887 21.0461 2.12189 20.9308C2.03487 20.8154 1.97143 20.6833 1.93634 20.5431C1.90131 20.403 1.89443 20.2571 1.91681 20.1144C1.93921 19.9717 1.9909 19.8347 2.0672 19.7121V19.7111C3.34734 17.4643 5.34703 15.7131 7.74298 14.7404L7.81915 14.7091L7.75275 14.6593C6.56452 13.768 5.68685 12.5254 5.24396 11.1076C4.80104 9.6896 4.81522 8.16822 5.28497 6.75893C5.75474 5.34963 6.65604 4.12365 7.86115 3.25502C9.06625 2.38643 10.5143 1.91913 11.9998 1.91908ZM12.9598 4.17299C12.0052 3.9832 11.0162 4.08087 10.117 4.45326C9.21766 4.82578 8.44884 5.45638 7.90802 6.26576C7.3672 7.07516 7.07794 8.02668 7.07794 9.00014C7.07946 10.305 7.59865 11.556 8.5213 12.4787C9.44396 13.4013 10.695 13.9205 11.9998 13.922C12.9733 13.922 13.9248 13.6328 14.7342 13.0919C15.5435 12.5511 16.1751 11.7832 16.5477 10.8839C16.9202 9.98466 17.0168 8.99484 16.827 8.04018C16.6371 7.08543 16.1686 6.20801 15.4803 5.51967C14.792 4.83136 13.9145 4.3629 12.9598 4.17299Z" fill="#475569" stroke="#475569" stroke-width="0.09375"/>
</svg>
