<svg width="24" height="24" viewBox="0 0 24 24" fill="none" xmlns="http://www.w3.org/2000/svg">
<path d="M14.8028 0.436829C15.0293 0.394519 15.2635 0.425314 15.4708 0.525696C15.6782 0.626182 15.848 0.791402 15.9552 0.995422C16.0355 1.14838 16.078 1.31748 16.0792 1.48859L16.0665 1.65948L15.0733 8.2796L15.0685 8.31671L15.1026 8.33038L19.9005 10.2493C20.0631 10.3144 20.2079 10.4177 20.3214 10.5511C20.4349 10.6845 20.5136 10.8441 20.5518 11.015C20.5906 11.1865 20.5871 11.3648 20.5411 11.5345C20.4951 11.7042 20.4082 11.8601 20.2882 11.9886L9.78818 23.2386C9.63106 23.4072 9.42388 23.5214 9.19736 23.5638C8.9709 23.6061 8.73674 23.5743 8.52939 23.4739C8.32205 23.3735 8.15221 23.2091 8.04501 23.0052C7.96455 22.852 7.92217 22.6824 7.92099 22.511L7.93369 22.3401L8.92685 15.7171L8.93173 15.681L8.89755 15.6673L4.0997 13.7484C3.93703 13.6832 3.79232 13.5791 3.6788 13.4456C3.56528 13.3121 3.4855 13.1528 3.44736 12.9818C3.40927 12.8108 3.41407 12.6332 3.46005 12.4642C3.5061 12.2951 3.5924 12.1391 3.71201 12.011L14.212 0.761047C14.3691 0.592514 14.5763 0.479153 14.8028 0.436829ZM13.3155 4.88507L6.41025 12.2835L6.36337 12.3343L6.42685 12.3597L10.5255 13.9993C10.751 14.0895 10.9398 14.2535 11.0606 14.4642C11.1812 14.6746 11.2273 14.9196 11.1915 15.1595L10.6036 19.0755L10.5811 19.2249L10.6847 19.1146L17.5899 11.7161L17.6368 11.6663L17.5733 11.6409L13.4747 10.0013C13.2493 9.91108 13.0604 9.74706 12.9395 9.53644C12.8187 9.32577 12.7727 9.08032 12.8087 8.84015L13.3966 4.92413L13.419 4.77472L13.3155 4.88507Z" fill="#475569" stroke="#475569" stroke-width="0.09375"/>
</svg>
