<svg width="20" height="20" viewBox="0 0 20 20" fill="none" xmlns="http://www.w3.org/2000/svg">
<path d="M17.1875 8.74998V16.25C17.1875 16.6644 17.0229 17.0618 16.7299 17.3548C16.4368 17.6479 16.0394 17.8125 15.625 17.8125H4.375C3.9606 17.8125 3.56317 17.6479 3.27015 17.3548C2.97712 17.0618 2.8125 16.6644 2.8125 16.25V8.74998C2.8125 8.33558 2.97712 7.93815 3.27015 7.64512C3.56317 7.3521 3.9606 7.18748 4.375 7.18748H5.9375C6.18614 7.18748 6.4246 7.28625 6.60041 7.46206C6.77623 7.63788 6.875 7.87634 6.875 8.12498C6.875 8.37362 6.77623 8.61207 6.60041 8.78789C6.4246 8.96371 6.18614 9.06248 5.9375 9.06248H4.6875V15.9375H15.3125V9.06248H14.0625C13.8139 9.06248 13.5754 8.96371 13.3996 8.78789C13.2238 8.61207 13.125 8.37362 13.125 8.12498C13.125 7.87634 13.2238 7.63788 13.3996 7.46206C13.5754 7.28625 13.8139 7.18748 14.0625 7.18748H15.625C16.0394 7.18748 16.4368 7.3521 16.7299 7.64512C17.0229 7.93815 17.1875 8.33558 17.1875 8.74998ZM7.53828 5.66326L9.0625 4.1406V10.625C9.0625 10.8736 9.16127 11.1121 9.33709 11.2879C9.5129 11.4637 9.75136 11.5625 10 11.5625C10.2486 11.5625 10.4871 11.4637 10.6629 11.2879C10.8387 11.1121 10.9375 10.8736 10.9375 10.625V4.1406L12.4617 5.6656C12.5489 5.75281 12.6525 5.82198 12.7664 5.86918C12.8803 5.91637 13.0025 5.94067 13.1258 5.94067C13.2491 5.94067 13.3712 5.91637 13.4852 5.86918C13.5991 5.82198 13.7026 5.75281 13.7898 5.6656C13.877 5.5784 13.9462 5.47487 13.9934 5.36093C14.0406 5.24699 14.0649 5.12487 14.0649 5.00154C14.0649 4.87821 14.0406 4.75609 13.9934 4.64215C13.9462 4.52821 13.877 4.42468 13.7898 4.33748L10.6648 1.21248C10.5777 1.12508 10.4743 1.05573 10.3603 1.00841C10.2463 0.961094 10.1242 0.936737 10.0008 0.936737C9.87739 0.936737 9.75522 0.961094 9.64126 1.00841C9.52731 1.05573 9.42382 1.12508 9.33672 1.21248L6.21172 4.33748C6.12451 4.42468 6.05534 4.52821 6.00814 4.64215C5.96095 4.75609 5.93665 4.87821 5.93665 5.00154C5.93665 5.25061 6.0356 5.48948 6.21172 5.6656C6.38784 5.84172 6.62671 5.94067 6.87578 5.94067C7.12485 5.94067 7.36372 5.84172 7.53984 5.6656L7.53828 5.66326Z" fill="white"/>
</svg>
