<svg width="24" height="24" viewBox="0 0 24 24" fill="none" xmlns="http://www.w3.org/2000/svg">
<path d="M12 1.92135C12.4848 1.92135 12.9501 2.11378 13.293 2.4565L20.793 9.9565C20.9633 10.1258 21.0985 10.3274 21.1904 10.5493C21.2823 10.7711 21.3288 11.0093 21.3281 11.2495V20.2505C21.328 20.5361 21.2146 20.8101 21.0127 21.0122C20.8105 21.2144 20.5359 21.3286 20.25 21.3286H3.75C3.46407 21.3286 3.18949 21.2144 2.9873 21.0122C2.78539 20.8101 2.67199 20.5361 2.67188 20.2505V11.2495C2.67116 11.0093 2.71769 10.7711 2.80957 10.5493C2.90148 10.3274 3.03669 10.1258 3.20703 9.9565H3.20801L10.708 2.4565C11.0508 2.11397 11.5154 1.92135 12 1.92135ZM19.1719 11.3852L12 4.21334L4.82812 11.3852V19.1723H19.1719V11.3852Z" fill="#475569" stroke="#475569" stroke-width="0.09375"/>
</svg>
